#!OML:ASF E:/inclinewalkrobotboard/Project1/Captureday1/Session1/subject1.ASF
:FULLY-SPECIFIED
:DEGREES
1
root 0 0 0 -2.735510193237663 -5.248811262017743 -5.431632673610495
lowerback 7.088482170819608 2.4602559396036385 2.826564216521926
upperback -1.7621150275470938 3.645449668913302 0.991434136062396
thorax -5.6982088247458424 1.7387006165318966 -0.9598790187065468
lowerneck -14.991539923158873 -3.220478396132982 -0.9843737005845014
upperneck 26.64232096059949 -5.088912232264421 2.382058568656448
head 11.36455571916995 -2.083784096598273 0.28783975716402166
rclavicle -1.7387395283294443E-15 4.965256838156043E-16
rhumerus -29.061461970807784 -21.52047583263266 -83.09575186429976
rradius 37.11321196086956
rwrist 18.95015473933508
rhand -20.031680784267074 9.712235580155546
rfingers 7.12501999999998
rthumb 6.325215088352391 -20.210636176669688
lclavicle -2.200285117509183E-15 2.9468419759605094E-16
lhumerus -32.57933685181958 4.570244948958771 83.22778234272552
lradius 20.461593469326868
lwrist -0.17063053238828862
lhand -26.0804246061176 22.976716902982655
lfingers 7.1250199999999655
lthumb 0.4916867530939344 52.94534666168718
rfemur -8.175232247453444 3.085800482600292 16.026522241531286
rtibia 23.136136361478556
rfoot -5.115545696835403 -4.111560606440713
rtoes 2.355746666155851
lfemur -9.734554224492364 -3.2641551636000887 -13.177113014602854
ltibia 29.107863027026163
lfoot -15.472280412924572 5.67413835503266
ltoes -36.085945641275345
2
root 0 0 0 -3.3217720570349254 -5.2194038294915055 -4.974353395317729
lowerback 7.178021708758964 2.2002727173040086 2.664014242356007
upperback -1.6111036234611082 3.2810644365413815 1.0197556322031467
thorax -5.592548108495994 1.5588099558434605 -0.7746531402216682
lowerneck -16.250814082681245 -3.0186106665014925 -0.9962731096343476
upperneck 28.51552497040297 -4.813589016178485 1.8662638115899182
head 12.166211378357639 -1.9412817828010618 0.11681755918611025
rclavicle -1.376643375415508E-15 -6.422644704987475E-16
rhumerus -29.964643292285835 -23.147459306555625 -84.15232063832516
rradius 34.079154228958885
rwrist 21.598529438747555
rhand -20.236623435396016 10.976467171046782
rfingers 7.1250199999999735
rthumb 6.118466313150462 -18.96368434168937
lclavicle -1.0654512970344705E-15 -8.871669615853066E-16
lhumerus -33.8852629128856 6.037792292681568 82.37485444678913
lradius 18.941213881558586
lwrist -1.1740244558192812
lhand -25.942714607532537 23.708540268215017
lfingers 7.125019999999957
lthumb 0.6297779793698712 53.66712196384511
rfemur -7.919483972722144 2.909618536007777 15.411302603837187
rtibia 22.695614225545185
rfoot -4.697538977687046 -3.9072527363122687
rtoes 2.4370132662044273
lfemur -10.928578894469016 -2.2998863935445852 -14.340107744436532
ltibia 30.759236747004554
lfoot -12.722746727420924 3.2979107917954122
ltoes -29.85195895405899
3
root 0 0 0 -3.917533279714748 -5.108375307434965 -4.279563319250234
lowerback 7.383005353249585 1.742602119635385 2.2794455165219283
upperback -1.3423256927652332 2.6203529122255884 1.071660715671751
thorax -5.434611287471189 1.238527409401868 -0.3995911928694693
lowerneck -17.403092587637982 -2.6234936406175224 -0.8373795309284426
upperneck 30.48777198014662 -4.2529445168447655 1.0803691327261518
head 12.99386687069764 -1.6719914939597347 -0.13810739074238682
rclavicle -8.547583303453192E-16 -1.055594689367463E-15
rhumerus -30.81217894192841 -24.404881422084358 -84.81925612349191
rradius 31.85501338832886
rwrist 22.907869628363375
rhand -20.239850547933557 11.361265978960144
rfingers 7.12501999999997
rthumb 6.1073132512434745 -18.580584891811984
lclavicle -2.0299970771859607E-16 -1.4087581259357839E-15
lhumerus -34.51427371114511 6.602529970601054 81.8130109736376
lradius 18.450905742448562
lwrist -1.3507128759766291
lhand -26.008864872927447 24.362304321296435
lfingers 7.125019999999952
lthumb 0.5697712623340818 54.32983002168375
rfemur -8.254392269364223 2.921287896479607 15.835430999146531
rtibia 23.883391661078118
rfoot -4.583119265765644 -3.9733810113069365
rtoes 2.701289004665232
lfemur -11.928648104797142 -1.2205836151477854 -15.07699535322672
ltibia 32.18899136149122
lfoot -10.60806457392408 1.4050689486482142
ltoes -25.855911602703895
4
root 0 0 0 -4.034587453364278 -4.8215166959923295 -3.5677068277925086
lowerback 7.651588969760461 1.138839675856027 1.6631205735775678
upperback -1.3433393038440438 1.7288556415844636 1.067801821887698
thorax -5.624192317005963 0.8065320120271544 0.05524404419111989
lowerneck -17.999547649293888 -2.137295746874736 -0.447460266762505
upperneck 28.705604657258085 -3.459124483345692 0.21527931631585462
head 12.48789693503901 -1.3543813419774866 -0.3868817538588121
rclavicle -5.251179725929597E-16 -8.907367893447522E-16
rhumerus -31.573470076927343 -25.057431018430734 -85.32859478880735
rradius 30.45466415984783
rwrist 23.510227499865735
rhand -20.161122108413622 11.320497479438004
rfingers 7.125019999999969
rthumb 6.177782648156278 -18.611834615169197
lclavicle -7.903456693914479E-17 -1.1270312873789038E-15
lhumerus -34.51154401372469 6.483917303142416 81.56200673484872
lradius 18.6754509461618
lwrist -0.997155718781543
lhand -26.20933848469968 24.804832353572802
lfingers 7.125019999999954
lthumb 0.3786518334822242 54.78648243223634
rfemur -9.125687299846662 3.146771156759172 17.257470089142156
rtibia 26.38885913546997
rfoot -4.89141327845939 -4.329292765470749
rtoes 3.035828052097683
lfemur -12.121370487266105 -0.6147677376988288 -15.366326302347112
ltibia 32.81847688763099
lfoot -9.84622594884653 0.5924662828496179
ltoes -24.581777750496144
5
root 0 0 0 -3.9583494092367286 -4.508958967544025 -2.832010452804612
lowerback 8.770062514499005 0.4473558848887022 0.7372555231304838
upperback -1.3466241142718225 0.6967321625818995 1.068318972913304
thorax -6.314254509522947 0.3103799623212488 0.6780385857937835
lowerneck -17.783913050219766 -1.7750072830212407 0.1572831671241396
upperneck 22.464018578427154 -2.6847208837481684 -0.6820938593560204
head 10.383391606573351 -1.1215806628960485 -0.6335549817231041
rclavicle -5.7723252632217E-16 -6.161362335548936E-16
rhumerus -31.82845072398586 -25.279827768597233 -85.50061228503495
rradius 30.073687138089102
rwrist 23.845992540124264
rhand -20.11826131478995 11.1950732662822
rfingers 7.125019999999968
rthumb 6.216852460292048 -18.731083256391646
lclavicle -8.108145547127594E-16 -7.069663743432597E-16
lhumerus -34.15079847631697 5.919340182399405 81.47878717685522
lradius 19.461019945213366
lwrist -0.30408849424469286
lhand -26.464909041730824 24.958825877539187
lfingers 7.125019999999959
lthumb 0.13600227975245627 54.954078076127
rfemur -9.937596580317873 3.399504838203674 18.588959421136483
rtibia 28.43238379808852
rfoot -5.342176343616075 -4.707174238700693
rtoes 3.215611162494919
lfemur -11.58504592523776 -0.5318529270531989 -15.425820695827408
ltibia 32.75839028819577
lfoot -10.140099201227716 0.6211437681622423
ltoes -24.9346903637289
6
root 0 0 0 -3.709829628138873 -4.1332211655363595 -2.4901661374508017
lowerback 9.514893354444165 0.014871424118307441 0.06204535649704257
upperback -1.3930631509389308 0.05858206791263787 1.1692680197831964
thorax -6.807158573019446 0.00885132326708682 1.2166433770832137
lowerneck -17.088969152131163 -1.6627948062735682 0.5904351858387976
upperneck 18.617478194670937 -2.344146237789226 -1.1932249641113308
head 9.005075470980353 -1.0497951987152523 -0.789163527163941
rclavicle -8.591959765608982E-16 -4.933664427720939E-16
rhumerus -30.929723090022527 -25.72192651473033 -84.74780027301715
rradius 31.125453134388486
rwrist 24.13823218093421
rhand -20.20698430131838 10.967571163040343
rfingers 7.125019999999969
rthumb 6.131836196850628 -18.976409503654867
lclavicle -1.882151792683977E-15 -6.931085186419361E-16
lhumerus -33.682569313499286 5.033692096520081 81.36133242970737
lradius 20.794808586753213
lwrist 0.7644916150852432
lhand -26.79379009705175 25.034041821344918
lfingers 7.1250199999999655
lthumb -0.177017268142599 55.042646301574905
rfemur -10.380972195207507 3.565485693604568 19.299859533172942
rtibia 29.294862654709448
rfoot -5.698342211376062 -4.943829504503492
rtoes 3.2103683805822323
lfemur -11.1241254967297 -0.39405417769654827 -15.348119293110708
ltibia 32.666285161077866
lfoot -10.572431083716518 0.7686829610912995
ltoes -25.894785818378733
7
root 0 0 0 -3.320158492963955 -3.7032583347785186 -2.4423974245165474
lowerback 9.630312329619567 -0.2337742396621535 -0.2463333757844166
upperback -1.4370082936094812 -0.29264292107945455 1.293967955265902
thorax -6.91951788369394 -0.1570994020028197 1.5488787760762186
lowerneck -16.346551072110877 -1.6134290157727362 0.8338165414488933
upperneck 16.92098536686509 -2.173070203296392 -1.4304065437718856
head 8.287404732824603 -1.0189174636770544 -0.8615720827684925
rclavicle -8.46153904307535E-16 -3.6170509349320966E-16
rhumerus -29.24119285171487 -26.531840723218767 -83.2060545681541
rradius 33.191932087288826
rwrist 24.156508035036232
rhand -20.409951798990086 10.58802884818525
rfingers 7.125019999999969
rthumb 5.939094752915297 -19.40214346481664
lclavicle -1.960560630561729E-15 -9.050339004087123E-16
lhumerus -33.38749538730837 3.852874881662396 81.029990199899
lradius 22.853763611415246
lwrist 2.423200129389624
lhand -27.2143156701039 25.3169567316908
lfingers 7.125019999999967
lthumb -0.5840053650242671 55.34920705760421
rfemur -10.525895109270975 3.6764513507536836 19.633473275276767
rtibia 29.430198263815917
rfoot -5.978612158597631 -5.071976036860934
rtoes 3.1244523735832566
lfemur -11.86678496734418 0.4381650265062911 -15.038167301382243
ltibia 33.207824200069496
lfoot -10.247706625042845 0.4213882401105393
ltoes -27.015534349691013
8
root 0 0 0 -2.955185808005485 -3.4327388643474155 -2.5274874751326917
lowerback 9.59584732736863 -0.40342316892243424 -0.3242830256151086
upperback -1.4275311080079318 -0.5232257201503345 1.373039604335462
thorax -6.892172043564258 -0.26963200076753047 1.6960522821300734
lowerneck -15.642631088084984 -1.516946878215634 1.0785859671024118
upperneck 15.205445533496363 -1.9545480771497084 -1.6158739538126892
head 7.546271487742768 -0.9597812040310355 -0.9118618478756635
rclavicle -5.170081743147917E-16 -4.932660851390108E-16
rhumerus -28.0511309833776 -27.775294311827047 -81.78247969578732
rradius 34.6365282488259
rwrist 23.914029918283443
rhand -20.538286078069373 9.901110639679938
rfingers 7.125019999999969
rthumb 5.815875719360092 -20.125698531289338
lclavicle -1.4318496950705126E-15 -1.3784717635636925E-15
lhumerus -33.57308371593417 3.380423400541156 80.73544168360016
lradius 24.019732345950793
lwrist 3.2333979802235073
lhand -27.30780516226867 25.27653976758477
lfingers 7.125019999999966
lthumb -0.6757707226957228 55.317014477223054
rfemur -10.501994976759843 3.7188668718957927 19.718154689306054
rtibia 29.342677669790103
rfoot -6.093569364137577 -5.10203200401899
rtoes 3.0802550149102754
lfemur -13.201378080066808 1.3853412028625707 -14.730663825741047
ltibia 34.00996723596056
lfoot -9.427295483936401 -0.18206876753935797
ltoes -27.526007342591072
